<?xml version="1.0" encoding="UTF-8" standalone="no"?>
<svg
   inkscape:export-ydpi="48"
   inkscape:export-xdpi="48"
   inkscape:export-filename="icon/64x64.png"
   sodipodi:docname="knock-knock.svg"
   inkscape:version="1.4.2 (ebf0e940d0, 2025-05-08)"
   id="svg1209"
   version="1.1"
   viewBox="0 0 33.866667 33.866667"
   height="128"
   width="128"
   xmlns:inkscape="http://www.inkscape.org/namespaces/inkscape"
   xmlns:sodipodi="http://sodipodi.sourceforge.net/DTD/sodipodi-0.dtd"
   xmlns="http://www.w3.org/2000/svg"
   xmlns:svg="http://www.w3.org/2000/svg"
   xmlns:rdf="http://www.w3.org/1999/02/22-rdf-syntax-ns#"
   xmlns:cc="http://creativecommons.org/ns#"
   xmlns:dc="http://purl.org/dc/elements/1.1/">
  <title
     id="title850">Cadet-GTK Full Color Icon</title>
  <defs
     id="defs1203" />
  <sodipodi:namedview
     inkscape:window-maximized="1"
     inkscape:window-y="0"
     inkscape:window-x="0"
     inkscape:window-height="1371"
     inkscape:window-width="2560"
     height="128px"
     units="px"
     showgrid="false"
     inkscape:document-rotation="0"
     inkscape:current-layer="layer4"
     inkscape:document-units="mm"
     inkscape:cy="50.558135"
     inkscape:cx="-67.882251"
     inkscape:zoom="2.8284271"
     inkscape:pageshadow="2"
     inkscape:pageopacity="0.0"
     borderopacity="1.0"
     bordercolor="#666666"
     pagecolor="#ffffff"
     id="base"
     inkscape:pagecheckerboard="true"
     inkscape:showpageshadow="0"
     inkscape:deskcolor="#505050" />
  <metadata
     id="metadata1206">
    <rdf:RDF>
      <cc:Work
         rdf:about="">
        <dc:format>image/svg+xml</dc:format>
        <dc:type
           rdf:resource="http://purl.org/dc/dcmitype/StillImage" />
        <dc:title>Cadet-GTK Full Color Icon</dc:title>
        <cc:license
           rdf:resource="http://creativecommons.org/publicdomain/zero/1.0/" />
        <dc:date>20.06.2020</dc:date>
        <dc:creator>
          <cc:Agent>
            <dc:title>Tobias Frisch</dc:title>
          </cc:Agent>
        </dc:creator>
        <dc:publisher>
          <cc:Agent>
            <dc:title>Tobias Frisch</dc:title>
          </cc:Agent>
        </dc:publisher>
      </cc:Work>
      <cc:License
         rdf:about="http://creativecommons.org/publicdomain/zero/1.0/">
        <cc:permits
           rdf:resource="http://creativecommons.org/ns#Reproduction" />
        <cc:permits
           rdf:resource="http://creativecommons.org/ns#Distribution" />
        <cc:permits
           rdf:resource="http://creativecommons.org/ns#DerivativeWorks" />
      </cc:License>
    </rdf:RDF>
  </metadata>
  <g
     inkscape:groupmode="layer"
     id="layer1"
     inkscape:label="door"
     sodipodi:insensitive="true">
    <rect
       style="fill:#78551b;fill-opacity:1;stroke:#78551b;stroke-width:0.79375;stroke-linecap:round;stroke-linejoin:round;stroke-dasharray:none;stroke-opacity:1;paint-order:stroke markers fill"
       id="rect1-6"
       width="20.372917"
       height="25.598436"
       x="6.7468748"
       y="5.1924481"
       ry="1.1495554" />
    <rect
       style="fill:#6a4b21;fill-opacity:1;stroke:#78551b;stroke-width:0.79375;stroke-linecap:round;stroke-linejoin:round;stroke-dasharray:none;stroke-opacity:1;paint-order:stroke markers fill"
       id="rect1"
       width="20.372917"
       height="25.598436"
       x="6.7468748"
       y="4.1341152"
       ry="1.1495554" />
    <circle
       style="fill:#666666;fill-opacity:1;stroke:#666666;stroke-width:0.264583;stroke-linecap:round;stroke-linejoin:round;stroke-dasharray:none;stroke-opacity:1;paint-order:stroke markers fill"
       id="path1"
       cx="10.484115"
       cy="17.4625"
       r="1.5875" />
    <circle
       style="fill:#818181;fill-opacity:1;stroke:#666666;stroke-width:0.529167;stroke-linecap:round;stroke-linejoin:round;stroke-dasharray:none;stroke-opacity:1;paint-order:stroke markers fill"
       id="path1-5"
       cx="10.484115"
       cy="16.933332"
       r="1.5875" />
  </g>
  <g
     inkscape:groupmode="layer"
     id="layer4"
     inkscape:label="light"
     style="display:inline;opacity:0.210705;mix-blend-mode:lighten"
     sodipodi:insensitive="true">
    <rect
       style="fill:#ffffff;fill-opacity:1;stroke:none;stroke-width:0.530497;stroke-linecap:square;stroke-linejoin:round;stroke-dasharray:none;stroke-opacity:1;paint-order:fill markers stroke"
       id="rect5"
       width="1.7859374"
       height="25.594301"
       x="20.323175"
       y="4.1361814"
       ry="0" />
    <rect
       style="fill:#ffffff;fill-opacity:1;stroke:none;stroke-width:0.401945;stroke-linecap:square;stroke-linejoin:round;stroke-dasharray:none;stroke-opacity:1;paint-order:fill markers stroke"
       id="rect5-5"
       width="1.0252603"
       height="25.594301"
       x="23.283201"
       y="4.1361814"
       ry="0" />
    <rect
       style="fill:#ffffff;fill-opacity:1;stroke:none;stroke-width:0.32285;stroke-linecap:square;stroke-linejoin:round;stroke-dasharray:none;stroke-opacity:1;paint-order:fill markers stroke"
       id="rect5-5-2"
       width="0.66145825"
       height="25.594301"
       x="25.201431"
       y="4.1361814"
       ry="0" />
  </g>
  <g
     inkscape:groupmode="layer"
     id="layer3"
     inkscape:label="knock"
     sodipodi:insensitive="true">
    <path
       style="fill:#ffffff;fill-opacity:1;stroke:#000000;stroke-width:0.530743;stroke-linecap:square;stroke-linejoin:miter;stroke-dasharray:none;stroke-opacity:1"
       d="m 21.411686,8.1082236 c 1.39491,2.3073914 3.077571,2.2408504 4.972605,0.4222026 -0.527133,2.8214638 0.808703,3.1761388 2.720862,2.8146818 -0.847109,1.933643 -0.483542,3.308376 1.594989,4.315848 -2.754184,1.548075 -1.466666,3.09615 -0.187648,4.644226 -2.544189,1.126324 -2.387608,2.471671 -2.111013,3.846734 -2.265039,-0.642934 -3.332518,0.340505 -3.565264,1.923367 -2.218308,-2.384362 -3.66374,-1.349981 -5.019518,-0.562937 -0.07896,-3.305149 -1.975207,-3.115545 -3.612178,-3.424531 1.655549,-2.175238 0.883365,-3.764473 -1.078962,-5.066428 2.252644,-1.216123 3.152406,-2.945404 1.782633,-5.535544 1.864778,-0.06809 3.956106,0.522875 4.503494,-3.3776194 z"
       id="path5"
       sodipodi:nodetypes="cccccccccccc" />
  </g>
  <g
     inkscape:groupmode="layer"
     id="layer2"
     inkscape:label="lock"
     sodipodi:insensitive="true">
    <g
       id="g5"
       transform="rotate(-43.061233,30.245596,19.27893)"
       style="fill:#857627;fill-opacity:1">
      <rect
         style="fill:#857627;fill-opacity:1;stroke:#857627;stroke-width:0.529167;stroke-linecap:round;stroke-linejoin:round;stroke-dasharray:none;stroke-opacity:1;paint-order:stroke markers fill"
         id="rect3"
         width="9.7895832"
         height="7.8713541"
         x="21.365105"
         y="13.956771"
         ry="1.1495554" />
      <path
         style="fill:#857627;fill-opacity:1;stroke:#857627;stroke-width:0.264583px;stroke-linecap:butt;stroke-linejoin:miter;stroke-opacity:1"
         d="m 23.382553,10.517187 c 0.864457,-2.7940527 5.248078,-3.0960362 5.820832,0.08269 0.572755,3.178723 0.339053,3.447312 0.181448,3.837432 -0.157605,0.39012 -1.016551,0.367756 -1.36132,-0.214483 -0.34477,-0.582239 0.20224,-1.824207 -0.324911,-3.226074 -0.527153,-1.4018668 -1.809939,-1.7960974 -2.612761,-0.132291 -0.802822,1.663806 -0.191971,2.847619 -0.211303,3.358361 -0.01933,0.510742 -1.50519,0.91951 -1.673023,0.0932 -0.167833,-0.826313 -0.233242,-2.306502 0.181034,-3.798828 z"
         id="path4"
         sodipodi:nodetypes="zzzzzzzzzz" />
    </g>
    <g
       id="g3"
       transform="rotate(-43.061233,29.574919,19.014329)">
      <rect
         style="fill:#a79625;fill-opacity:1;stroke:#857627;stroke-width:0.529167;stroke-linecap:round;stroke-linejoin:round;stroke-dasharray:none;stroke-opacity:1;paint-order:stroke markers fill"
         id="rect2"
         width="9.7895832"
         height="7.8713541"
         x="21.365105"
         y="13.956771"
         ry="1.1495554" />
      <path
         style="fill:#a79625;fill-opacity:1;stroke:#857627;stroke-width:0.264583px;stroke-linecap:butt;stroke-linejoin:miter;stroke-opacity:1"
         d="m 23.382553,10.517187 c 0.864457,-2.7940527 5.248078,-3.0960362 5.820832,0.08269 0.572755,3.178723 0.339053,3.447312 0.181448,3.837432 -0.157605,0.39012 -1.016551,0.367756 -1.36132,-0.214483 -0.34477,-0.582239 0.20224,-1.824207 -0.324911,-3.226074 -0.527153,-1.4018668 -1.809939,-1.7960974 -2.612761,-0.132291 -0.802822,1.663806 -0.191971,2.847619 -0.211303,3.358361 -0.01933,0.510742 -1.50519,0.91951 -1.673023,0.0932 -0.167833,-0.826313 -0.233242,-2.306502 0.181034,-3.798828 z"
         id="path2"
         sodipodi:nodetypes="zzzzzzzzzz" />
      <path
         style="fill:#47431b;fill-opacity:1;stroke:none;stroke-width:0.264583;stroke-linecap:butt;stroke-linejoin:miter;stroke-dasharray:none;stroke-opacity:1;paint-order:fill markers stroke"
         d="m 26.505144,16.020923 c -0.455094,-0.01123 -0.90687,0.326375 -0.96182,0.775224 -0.05494,0.448849 0.404659,0.613863 0.45215,0.964707 0.04749,0.350844 -0.189392,0.515758 -0.169045,0.872255 0.02035,0.356497 0.424521,0.670829 0.435426,0.942187 0.0109,0.271358 -0.392513,0.329727 -0.20798,0.486178 0.184533,0.156452 0.502712,-0.289332 0.583529,-0.586898 0.08082,-0.297566 -0.189688,-0.543932 -0.174044,-0.723834 0.01562,-0.179905 0.290473,-0.160995 0.313537,-0.292482 0.02302,-0.131489 -0.20343,-0.166639 -0.157392,-0.51406 0.04603,-0.347421 0.744393,-0.695102 0.671485,-1.152588 -0.07291,-0.457487 -0.330753,-0.759455 -0.785846,-0.770689 z"
         id="path3"
         sodipodi:nodetypes="zzzzzzzzzzzz" />
    </g>
  </g>
</svg>
